# xmcd CD database file
#
# Track frame offsets:
#	150
#	24773
#	43939
#	73426
#	99080
#	121511
#	139403
#	169103
#	191645
#
# Disc length: 2793 seconds
#
# Revision: 4
# Processed by: cddbd v1.5.2PL0 Copyright (c) Steve Scherf et al.
# Submitted via: CDex 1.70beta2
#
DISCID=770ae709
DTITLE=Joy Of Jazz - Love and Bubbles
DYEAR=1998
DGENRE=Jazz
TTITLE0=Can't Help Lovin' Dat Man
TTITLE1=Cousins
TTITLE2=Frohes Neues
TTITLE3=Night Talk
TTITLE4=Ninja
TTITLE5=St. Thomas
TTITLE6=Spurned Love
TTITLE7=Bubblegum
TTITLE8=Skylark
EXTD=YEAR: 1998
EXTT0=
EXTT1=
EXTT2=
EXTT3=
EXTT4=
EXTT5=
EXTT6=
EXTT7=
EXTT8=
PLAYORDER=
